<svg width="42" height="30" viewBox="0 0 42 30" fill="none" xmlns="http://www.w3.org/2000/svg">
<path d="M0.166504 2.49984C0.166504 1.9473 0.385997 1.4174 0.776698 1.0267C1.1674 0.635998 1.6973 0.416504 2.24984 0.416504H39.7498C40.3024 0.416504 40.8323 0.635998 41.223 1.0267C41.6137 1.4174 41.8332 1.9473 41.8332 2.49984C41.8332 3.05237 41.6137 3.58228 41.223 3.97298C40.8323 4.36368 40.3024 4.58317 39.7498 4.58317H2.24984C1.6973 4.58317 1.1674 4.36368 0.776698 3.97298C0.385997 3.58228 0.166504 3.05237 0.166504 2.49984Z" fill="#333333"/>
<path d="M0.166504 15.0667C0.166504 14.5142 0.385997 13.9843 0.776698 13.5936C1.1674 13.2029 1.6973 12.9834 2.24984 12.9834H39.7498C40.3024 12.9834 40.8323 13.2029 41.223 13.5936C41.6137 13.9843 41.8332 14.5142 41.8332 15.0667C41.8332 15.6193 41.6137 16.1492 41.223 16.5399C40.8323 16.9306 40.3024 17.1501 39.7498 17.1501H2.24984C1.6973 17.1501 1.1674 16.9306 0.776698 16.5399C0.385997 16.1492 0.166504 15.6193 0.166504 15.0667Z" fill="#333333"/>
<path d="M2.24984 25.5498C1.6973 25.5498 1.1674 25.7693 0.776698 26.16C0.385997 26.5507 0.166504 27.0806 0.166504 27.6331C0.166504 28.1857 0.385997 28.7156 0.776698 29.1063C1.1674 29.497 1.6973 29.7165 2.24984 29.7165H39.7498C40.3024 29.7165 40.8323 29.497 41.223 29.1063C41.6137 28.7156 41.8332 28.1857 41.8332 27.6331C41.8332 27.0806 41.6137 26.5507 41.223 26.16C40.8323 25.7693 40.3024 25.5498 39.7498 25.5498H2.24984Z" fill="#333333"/>
</svg>
