<svg width="48" height="48" viewBox="0 0 48 48" fill="none" xmlns="http://www.w3.org/2000/svg">
<path d="M39.5 15.5H30.5C29.9696 15.5 29.4609 15.2893 29.0858 14.9142C28.7107 14.5391 28.5 14.0304 28.5 13.5V4.5M39.5 15.5V41.5C39.5 42.0304 39.2893 42.5391 38.9142 42.9142C38.5391 43.2893 38.0304 43.5 37.5 43.5H10.5C9.96957 43.5 9.46086 43.2893 9.08579 42.9142C8.71071 42.5391 8.5 42.0304 8.5 41.5V6.5C8.5 5.96957 8.71071 5.46086 9.08579 5.08579C9.46086 4.71071 9.96957 4.5 10.5 4.5H28.5M39.5 15.5L28.5 4.5" stroke="#333333" stroke-width="2" stroke-linecap="round" stroke-linejoin="round"/>
<path d="M24.0002 39.7471C26.6633 39.7471 28.8222 34.5983 28.8222 28.2471C28.8222 21.8958 26.6633 16.7471 24.0002 16.7471C21.3371 16.7471 19.1782 21.8958 19.1782 28.2471C19.1782 34.5983 21.3371 39.7471 24.0002 39.7471Z" stroke="#333333" stroke-width="2" stroke-linecap="round" stroke-linejoin="round"/>
<path d="M26.4112 32.4232C31.9115 29.2476 35.291 24.8036 33.9595 22.4973C32.6279 20.1909 27.0895 20.8957 21.5892 24.0713C16.0888 27.2469 12.7093 31.6909 14.0409 33.9973C15.3724 36.3036 20.9108 35.5989 26.4112 32.4232Z" stroke="#333333" stroke-width="2" stroke-linecap="round" stroke-linejoin="round"/>
<path d="M33.9595 33.9969C35.291 31.6906 31.9115 27.2465 26.4112 24.0709C20.9108 20.8953 15.3724 20.1905 14.0409 22.4969C12.7093 24.8032 16.0888 29.2472 21.5892 32.4229C27.0895 35.5985 32.6279 36.3032 33.9595 33.9969Z" stroke="#333333" stroke-width="2" stroke-linecap="round" stroke-linejoin="round"/>
</svg>
