<svg width="48" height="48" viewBox="0 0 48 48" fill="none" xmlns="http://www.w3.org/2000/svg">
<path d="M19 33.5C19 33.1022 18.842 32.7206 18.5607 32.4393C18.2794 32.158 17.8978 32 17.5 32C17.1022 32 16.7206 32.158 16.4393 32.4393C16.158 32.7206 16 33.1022 16 33.5V36.5C16 36.8978 16.158 37.2794 16.4393 37.5607C16.7206 37.842 17.1022 38 17.5 38C17.8978 38 18.2794 37.842 18.5607 37.5607C18.842 37.2794 19 36.8978 19 36.5V33.5ZM24 24C24.3978 24 24.7794 24.158 25.0607 24.4393C25.342 24.7206 25.5 25.1022 25.5 25.5V36.5C25.5 36.8978 25.342 37.2794 25.0607 37.5607C24.7794 37.842 24.3978 38 24 38C23.6022 38 23.2206 37.842 22.9393 37.5607C22.658 37.2794 22.5 36.8978 22.5 36.5V25.5C22.5 25.1022 22.658 24.7206 22.9393 24.4393C23.2206 24.158 23.6022 24 24 24ZM32 29.5C32 29.1022 31.842 28.7206 31.5607 28.4393C31.2794 28.158 30.8978 28 30.5 28C30.1022 28 29.7206 28.158 29.4393 28.4393C29.158 28.7206 29 29.1022 29 29.5V36.5C29 36.8978 29.158 37.2794 29.4393 37.5607C29.7206 37.842 30.1022 38 30.5 38C30.8978 38 31.2794 37.842 31.5607 37.5607C31.842 37.2794 32 36.8978 32 36.5V29.5ZM27.17 5.172L38.828 16.828C39.5782 17.578 39.9998 18.5952 40 19.656V40C40 41.0609 39.5786 42.0783 38.8284 42.8284C38.0783 43.5786 37.0609 44 36 44H12C10.9391 44 9.92172 43.5786 9.17157 42.8284C8.42143 42.0783 8 41.0609 8 40V8C8 6.93913 8.42143 5.92172 9.17157 5.17157C9.92172 4.42143 10.9391 4 12 4H24.344C24.4 4 24.454 4.008 24.508 4.014C24.5471 4.02052 24.5865 4.02519 24.626 4.028C25.056 4.058 25.48 4.14 25.874 4.304C25.988 4.352 26.098 4.416 26.206 4.478L26.306 4.536L26.4 4.584C26.456 4.60947 26.5101 4.63888 26.562 4.672C26.718 4.778 26.858 4.904 27 5.032C27.0232 5.05289 27.0473 5.0729 27.072 5.092C27.1064 5.11653 27.1391 5.14325 27.17 5.172ZM36 41C36.2652 41 36.5196 40.8946 36.7071 40.7071C36.8946 40.5196 37 40.2652 37 40V20H28C26.9391 20 25.9217 19.5786 25.1716 18.8284C24.4214 18.0783 24 17.0609 24 16V7H12C11.7348 7 11.4804 7.10536 11.2929 7.29289C11.1054 7.48043 11 7.73478 11 8V40C11 40.2652 11.1054 40.5196 11.2929 40.7071C11.4804 40.8946 11.7348 41 12 41H36ZM34.756 17L27 9.242V16C27 16.2652 27.1054 16.5196 27.2929 16.7071C27.4804 16.8946 27.7348 17 28 17H34.756Z" fill="#333333"/>
</svg>
