<svg width="48" height="45" viewBox="0 0 48 45" fill="none" xmlns="http://www.w3.org/2000/svg">
<g clip-path="url(#clip0_516_4808)">
<path d="M11.0769 40.6154H36.9231V33.2308H11.0769V40.6154ZM11.0769 22.1538H36.9231V11.0769H32.3077C31.5385 11.0769 30.8846 10.8077 30.3462 10.2692C29.8077 9.73077 29.5385 9.07692 29.5385 8.30769V3.69231H11.0769V22.1538ZM44.3077 24C44.3077 23.5 44.125 23.0673 43.7596 22.7019C43.3942 22.3365 42.9615 22.1538 42.4615 22.1538C41.9615 22.1538 41.5288 22.3365 41.1635 22.7019C40.7981 23.0673 40.6154 23.5 40.6154 24C40.6154 24.5 40.7981 24.9327 41.1635 25.2981C41.5288 25.6635 41.9615 25.8462 42.4615 25.8462C42.9615 25.8462 43.3942 25.6635 43.7596 25.2981C44.125 24.9327 44.3077 24.5 44.3077 24ZM48 24V36C48 36.25 47.9087 36.4663 47.726 36.649C47.5433 36.8317 47.3269 36.9231 47.0769 36.9231H40.6154V41.5385C40.6154 42.3077 40.3462 42.9615 39.8077 43.5C39.2692 44.0385 38.6154 44.3077 37.8462 44.3077H10.1538C9.38462 44.3077 8.73077 44.0385 8.19231 43.5C7.65385 42.9615 7.38462 42.3077 7.38462 41.5385V36.9231H0.923077C0.673077 36.9231 0.456731 36.8317 0.274038 36.649C0.0913462 36.4663 0 36.25 0 36V24C0 22.4808 0.543269 21.1779 1.62981 20.0913C2.71635 19.0048 4.01923 18.4615 5.53846 18.4615H7.38462V2.76923C7.38462 2 7.65385 1.34615 8.19231 0.807692C8.73077 0.269231 9.38462 0 10.1538 0H29.5385C30.3077 0 31.1538 0.192308 32.0769 0.576923C33 0.961538 33.7308 1.42308 34.2692 1.96154L38.6538 6.34615C39.1923 6.88462 39.6538 7.61538 40.0385 8.53846C40.4231 9.46154 40.6154 10.3077 40.6154 11.0769V18.4615H42.4615C43.9808 18.4615 45.2837 19.0048 46.3702 20.0913C47.4567 21.1779 48 22.4808 48 24Z" fill="#333333"/>
</g>
<defs>
<clipPath id="clip0_516_4808">
<rect width="48" height="44.3077" fill="white"/>
</clipPath>
</defs>
</svg>
