<svg width="50" height="50" viewBox="0 0 50 50" fill="none" xmlns="http://www.w3.org/2000/svg">
<path d="M4.1665 12.4998C4.1665 11.9473 4.386 11.4174 4.7767 11.0267C5.1674 10.636 5.6973 10.4165 6.24984 10.4165H43.7498C44.3024 10.4165 44.8323 10.636 45.223 11.0267C45.6137 11.4174 45.8332 11.9473 45.8332 12.4998C45.8332 13.0524 45.6137 13.5823 45.223 13.973C44.8323 14.3637 44.3024 14.5832 43.7498 14.5832H6.24984C5.6973 14.5832 5.1674 14.3637 4.7767 13.973C4.386 13.5823 4.1665 13.0524 4.1665 12.4998Z" fill="#333333"/>
<path d="M4.1665 25.0667C4.1665 24.5142 4.386 23.9843 4.7767 23.5936C5.1674 23.2029 5.6973 22.9834 6.24984 22.9834H43.7498C44.3024 22.9834 44.8323 23.2029 45.223 23.5936C45.6137 23.9843 45.8332 24.5142 45.8332 25.0667C45.8332 25.6193 45.6137 26.1492 45.223 26.5399C44.8323 26.9306 44.3024 27.1501 43.7498 27.1501H6.24984C5.6973 27.1501 5.1674 26.9306 4.7767 26.5399C4.386 26.1492 4.1665 25.6193 4.1665 25.0667Z" fill="#333333"/>
<path d="M6.24984 35.5498C5.6973 35.5498 5.1674 35.7693 4.7767 36.16C4.386 36.5507 4.1665 37.0806 4.1665 37.6331C4.1665 38.1857 4.386 38.7156 4.7767 39.1063C5.1674 39.497 5.6973 39.7165 6.24984 39.7165H43.7498C44.3024 39.7165 44.8323 39.497 45.223 39.1063C45.6137 38.7156 45.8332 38.1857 45.8332 37.6331C45.8332 37.0806 45.6137 36.5507 45.223 36.16C44.8323 35.7693 44.3024 35.5498 43.7498 35.5498H6.24984Z" fill="#333333"/>
</svg>
