<svg width="50" height="50" viewBox="0 0 50 50" fill="none" xmlns="http://www.w3.org/2000/svg">
<path d="M12.9687 10.0228C12.5758 9.64331 12.0495 9.43332 11.5033 9.43807C10.957 9.44281 10.4345 9.66192 10.0482 10.0482C9.66198 10.4345 9.44287 10.957 9.43813 11.5032C9.43338 12.0495 9.64337 12.5757 10.0229 12.9686L22.0541 24.9999L10.0208 37.0311C9.8218 37.2233 9.66309 37.4532 9.5539 37.7074C9.44472 37.9616 9.38725 38.2349 9.38484 38.5116C9.38244 38.7882 9.43515 39.0625 9.5399 39.3185C9.64466 39.5746 9.79935 39.8072 9.99496 40.0028C10.1906 40.1984 10.4232 40.3531 10.6792 40.4578C10.9352 40.5626 11.2096 40.6153 11.4862 40.6129C11.7628 40.6105 12.0362 40.553 12.2904 40.4438C12.5445 40.3347 12.7744 40.1759 12.9666 39.977L24.9999 27.9457L37.0312 39.977C37.4241 40.3565 37.9504 40.5665 38.4966 40.5617C39.0429 40.557 39.5654 40.3379 39.9517 39.9516C40.3379 39.5653 40.557 39.0428 40.5618 38.4966C40.5665 37.9503 40.3565 37.4241 39.977 37.0311L27.9458 24.9999L39.977 12.9686C40.3565 12.5757 40.5665 12.0495 40.5618 11.5032C40.557 10.957 40.3379 10.4345 39.9517 10.0482C39.5654 9.66192 39.0429 9.44281 38.4966 9.43807C37.9504 9.43332 37.4241 9.64331 37.0312 10.0228L24.9999 22.0541L12.9687 10.0228Z" fill="#333333"/>
</svg>
