<svg width="20" height="20" viewBox="0 0 20 20" fill="none" xmlns="http://www.w3.org/2000/svg">
<path fill-rule="evenodd" clip-rule="evenodd" d="M10.8335 4.85675V13.3334C10.8335 13.7937 10.4604 14.1667 10.0002 14.1667C9.53993 14.1667 9.16683 13.7937 9.16683 13.3334V4.85675L7.0535 6.97008C6.72811 7.29547 6.20055 7.29547 5.87516 6.97008C5.54977 6.64469 5.54977 6.11714 5.87516 5.79175L9.29306 2.37385C9.68358 1.98333 10.3167 1.98333 10.7073 2.37385L14.1252 5.79175C14.4506 6.11714 14.4506 6.64469 14.1252 6.97008C13.7998 7.29547 13.2722 7.29547 12.9468 6.97008L10.8335 4.85675ZM3.3335 14.1667C3.3335 13.7065 3.70659 13.3334 4.16683 13.3334C4.62707 13.3334 5.00016 13.7065 5.00016 14.1667V15.6667C5.00016 16.219 5.44788 16.6667 6.00016 16.6667H14.0002C14.5524 16.6667 15.0002 16.219 15.0002 15.6667V14.1667C15.0002 13.7065 15.3733 13.3334 15.8335 13.3334C16.2937 13.3334 16.6668 13.7065 16.6668 14.1667V16.6667C16.6668 17.5834 15.9168 18.3334 15.0002 18.3334H5.00016C4.0835 18.3334 3.3335 17.5309 3.3335 16.6667V14.1667Z" fill="#008054"/>
</svg>
