<svg width="40" height="40" viewBox="0 0 40 40" fill="none" xmlns="http://www.w3.org/2000/svg">
<g clip-path="url(#clip0_430_3415)">
<path d="M9.5 15V15.5H10H14.4531H14.6748L14.8236 15.3358C16.2423 13.7703 17.9581 13 20 13C22.0419 13 23.7577 13.7703 25.1764 15.3358L25.3252 15.5H25.5469H30H30.5V15V12.5C30.5 11.6897 30.2062 10.9794 29.6356 10.3934C29.0578 9.79996 28.3353 9.5 27.5 9.5H12.5C11.6854 9.5 10.9737 9.80358 10.3886 10.3886C9.80358 10.9737 9.5 11.6854 9.5 12.5V15ZM30.5 17.5V17H30H27.0312H26.3174L26.5614 17.6709C26.8566 18.4827 27 19.2582 27 20C27 21.9522 26.3224 23.5954 24.9589 24.9589C23.5954 26.3224 21.9522 27 20 27C18.0478 27 16.4046 26.3224 15.0411 24.9589C13.6776 23.5954 13 21.9522 13 20C13 19.2582 13.1434 18.4827 13.4386 17.6709L13.6826 17H12.9688H10H9.5V17.5V27.5C9.5 28.331 9.79026 29.0521 10.3691 29.6309C10.9479 30.2097 11.669 30.5 12.5 30.5H27.5C28.331 30.5 29.0521 30.2097 29.6309 29.6309C30.2097 29.0521 30.5 28.331 30.5 27.5V17.5ZM20 39.5C17.3586 39.5 14.8342 38.9861 12.4226 37.958C10.0036 36.9267 7.92912 35.5423 6.1934 33.8066C4.45767 32.0709 3.07327 29.9964 2.04198 27.5774C1.01391 25.1658 0.5 22.6414 0.5 20C0.5 17.3586 1.01391 14.8342 2.04198 12.4226C3.07327 10.0036 4.45767 7.92912 6.1934 6.1934C7.92912 4.45767 10.0036 3.07327 12.4226 2.04198C14.8342 1.01391 17.3586 0.5 20 0.5C22.6414 0.5 25.1658 1.01391 27.5774 2.04198C29.9964 3.07327 32.0709 4.45767 33.8066 6.1934C35.5423 7.92912 36.9267 10.0036 37.958 12.4226C38.9861 14.8342 39.5 17.3586 39.5 20C39.5 22.6414 38.9861 25.1658 37.958 27.5774C36.9267 29.9964 35.5423 32.0709 33.8066 33.8066C32.0709 35.5423 29.9964 36.9267 27.5774 37.958C25.1658 38.9861 22.6414 39.5 20 39.5ZM14.5 20C14.5 21.5129 15.041 22.8184 16.1113 23.8887C17.1816 24.959 18.4871 25.5 20 25.5C21.5129 25.5 22.8184 24.959 23.8887 23.8887C24.959 22.8184 25.5 21.5129 25.5 20C25.5 18.4871 24.959 17.1816 23.8887 16.1113C22.8184 15.041 21.5129 14.5 20 14.5C18.4871 14.5 17.1816 15.041 16.1113 16.1113C15.041 17.1816 14.5 18.4871 14.5 20Z" stroke="#333333"/>
</g>
<defs>
<clipPath id="clip0_430_3415">
<rect width="40" height="40" fill="white"/>
</clipPath>
</defs>
</svg>
