<svg width="40" height="40" viewBox="0 0 40 40" fill="none" xmlns="http://www.w3.org/2000/svg">
<g clip-path="url(#clip0_430_3419)">
<path d="M23.6276 19.6226H28.6726H29.2545L29.1669 20.1978L28.2819 26.0128L28.2173 26.4376H27.7876H23.6251V39.4059C32.6591 37.6963 39.5001 29.7139 39.5001 20.1226C39.5001 9.28081 30.7661 0.497621 20.0002 0.497559L23.6276 19.6226ZM23.6276 19.6226V16.3476C23.6276 15.6233 23.8048 14.9696 24.2048 14.5035C24.5927 14.0517 25.2537 13.7026 26.3851 13.7026H28.9076H29.4076V13.2026V8.25256V7.83104L28.9922 7.75976L28.9076 8.25256C28.9922 7.75976 28.9921 7.75975 28.9921 7.75974L28.9919 7.75972L28.9914 7.75964L28.9899 7.75937L28.9843 7.75842L28.9634 7.75492L28.8843 7.74202C28.8156 7.73099 28.7157 7.71534 28.5892 7.69662C28.3362 7.65919 27.9766 7.6094 27.5478 7.55964C26.6922 7.46037 25.5519 7.36006 24.4301 7.36006C22.0445 7.36006 20.0167 8.08934 18.5851 9.53049C17.1533 10.9718 16.3751 13.0673 16.3751 15.6876V19.6251H11.7951H11.2951V20.1251V25.9401V26.4401H11.7951H16.3701V39.4084C7.3361 37.6988 0.495117 29.7164 0.495117 20.1251C0.495117 9.28096 9.229 0.500058 20.0001 0.497559L23.6276 19.6226Z" stroke="#333333"/>
</g>
<defs>
<clipPath id="clip0_430_3419">
<rect width="40" height="40" fill="white"/>
</clipPath>
</defs>
</svg>
