<svg width="40" height="40" viewBox="0 0 40 40" fill="none" xmlns="http://www.w3.org/2000/svg">
<g clip-path="url(#clip0_430_3412)">
<circle cx="20" cy="20" r="19.5" stroke="#333333"/>
<path d="M9.85289 16.951L9.17732 16.6977V17.4192V27.7418V28.2418H9.67732H30.3225H30.8225V27.7418V17.4192V16.6977L30.1469 16.951L19.9999 20.7561L9.85289 16.951ZM9.67732 11.7579H9.17732V12.2579V14.8385V15.185L9.50176 15.3067L19.8243 19.1777L19.9999 19.2435L20.1755 19.1777L30.498 15.3067L30.8225 15.185V14.8385V12.2579V11.7579H30.3225H9.67732ZM9.67732 10.1772H30.3225C30.8743 10.1772 31.4035 10.3965 31.7937 10.7867C32.1839 11.1768 32.4031 11.7061 32.4031 12.2579V27.7418C32.4031 28.2936 32.1839 28.8228 31.7937 29.213C31.4035 29.6032 30.8743 29.8224 30.3225 29.8224H9.67732C9.1255 29.8224 8.59628 29.6032 8.20609 29.213C7.81589 28.8228 7.59668 28.2936 7.59668 27.7418V12.2579C7.59668 11.7061 7.81589 11.1768 8.20609 10.7867C8.59628 10.3965 9.1255 10.1772 9.67732 10.1772Z" fill="#F2F2F2" stroke="#333333"/>
</g>
<defs>
<clipPath id="clip0_430_3412">
<rect width="40" height="40" fill="white"/>
</clipPath>
</defs>
</svg>
