<svg width="40" height="40" viewBox="0 0 40 40" fill="none" xmlns="http://www.w3.org/2000/svg">
<g clip-path="url(#clip0_430_3422)">
<path d="M12.8243 23.4424C13.6182 23.4605 14.443 23.137 15.2867 22.5556C18.0091 20.7178 20.0718 19.3355 21.4753 18.4081C21.9782 18.0758 22.3953 17.8026 22.7274 17.588C22.4709 17.8455 22.17 18.1396 21.8454 18.452C20.9306 19.3325 19.8439 20.3437 19.0728 21.0612L18.9919 21.1365L18.9915 21.1368C18.9053 21.2172 18.8228 21.2941 18.745 21.3666C18.4002 21.6879 18.1484 21.9225 18.0792 21.9937C17.9291 22.1471 17.7766 22.298 17.6217 22.4464L17.6206 22.4474L17.6092 22.4584C17.3807 22.6784 17.1405 22.9098 16.9482 23.1428C16.7541 23.378 16.5686 23.6613 16.5029 23.9937C16.3541 24.7471 16.8573 25.3693 17.7296 25.9448C18.5445 26.4831 19.1973 26.9241 19.8483 27.3681C20.5591 27.8536 21.2718 28.338 22.1953 28.9453L22.1989 28.9476C22.396 29.0748 22.5878 29.2117 22.7847 29.3522C22.808 29.3688 22.8313 29.3854 22.8547 29.4021C22.8738 29.4157 22.893 29.4294 22.9122 29.4431C23.6892 29.9977 24.5759 30.6305 25.6836 30.5279L25.684 30.5278C26.576 30.4445 27.2073 29.6211 27.4965 28.0719C28.1586 24.5313 29.4653 16.8378 29.7678 13.6497L29.7679 13.6497L29.7688 13.6372C29.7895 13.3405 29.7775 13.0425 29.7331 12.7484C29.6934 12.4177 29.532 12.1134 29.2803 11.8949L29.2593 11.8768L29.2365 11.861C28.9232 11.6447 28.5498 11.5325 28.1692 11.5401C27.7039 11.5478 27.1588 11.6786 26.0779 12.0709C24.988 12.4665 23.2999 13.1491 20.5254 14.3034L20.5253 14.3034C18.5768 15.1149 14.6856 16.7904 8.86025 19.3284C8.37303 19.5222 7.96967 19.7264 7.67303 19.9468C7.38818 20.1585 7.11694 20.4483 7.06886 20.833L7.06877 20.8337C7.03531 21.1047 7.09741 21.3559 7.244 21.5707C7.38088 21.7713 7.57352 21.9143 7.76309 22.0221C8.12014 22.2252 8.61154 22.3802 9.09555 22.5329L9.13949 22.5468L9.14009 22.547L9.57254 22.6829C9.5734 22.6832 9.57426 22.6834 9.57512 22.6837C10.0918 22.8521 10.7011 23.0354 11.2751 23.1791C11.8383 23.3201 12.4073 23.4336 12.8243 23.4424ZM12.8243 23.4424C12.824 23.4424 12.8238 23.4424 12.8235 23.4424L12.835 22.9425L12.8245 23.4424C12.8244 23.4424 12.8244 23.4424 12.8243 23.4424ZM23.4929 16.7582C23.4957 16.753 23.4975 16.7503 23.4977 16.7503C23.4979 16.7502 23.4965 16.7528 23.4929 16.7582ZM23.6293 17.0287C23.6292 17.0288 23.6266 17.0301 23.622 17.0321C23.6271 17.0295 23.6295 17.0285 23.6293 17.0287ZM39.5 20C39.5 25.1717 37.4455 30.1316 33.7886 33.7886C30.1316 37.4455 25.1717 39.5 20 39.5C14.8283 39.5 9.86838 37.4455 6.21142 33.7886C2.55446 30.1316 0.5 25.1717 0.5 20C0.5 14.8283 2.55446 9.86838 6.21142 6.21142C9.86838 2.55446 14.8283 0.5 20 0.5C25.1717 0.5 30.1316 2.55446 33.7886 6.21142C37.4455 9.86838 39.5 14.8283 39.5 20Z" stroke="#333333"/>
</g>
<defs>
<clipPath id="clip0_430_3422">
<rect width="40" height="40" fill="white"/>
</clipPath>
</defs>
</svg>
