<svg width="40" height="40" viewBox="0 0 40 40" fill="none" xmlns="http://www.w3.org/2000/svg">
<g clip-path="url(#clip0_430_3425)">
<circle cx="20" cy="20" r="19.5" stroke="#333333"/>
<path d="M13.1217 14.5032C13.1217 14.227 12.8978 14.0032 12.6217 14.0032H9.03223C8.75608 14.0032 8.53223 14.227 8.53223 14.5032C8.53223 20.5251 10.7896 24.0597 13.5754 26.0699C16.3321 28.059 19.5391 28.5079 21.3959 28.5079C21.672 28.5079 21.8959 28.2841 21.8959 28.0079V23.9709C24.2605 25.0197 25.9617 27.2098 26.5428 28.2515C26.6311 28.4098 26.7982 28.5079 26.9794 28.5079H30.9677C31.116 28.5079 31.2567 28.4421 31.3517 28.3282C31.4467 28.2143 31.4862 28.064 31.4596 27.9181C31.1146 26.0285 29.9729 24.4499 28.7316 23.2582C27.806 22.3696 26.8027 21.6744 25.9748 21.2044C28.8224 19.1668 30.2637 16.0541 30.6523 14.6352C30.6935 14.4848 30.6622 14.3238 30.5676 14.1999C30.473 14.0759 30.326 14.0032 30.1701 14.0032H26.5806C26.379 14.0032 26.1972 14.1242 26.1194 14.3102C24.8207 17.4142 22.7183 18.6718 21.497 19.0478V14.5032C21.497 14.227 21.2732 14.0032 20.997 14.0032H17.8064C17.5303 14.0032 17.3064 14.227 17.3064 14.5032V22.3919C15.5217 21.3531 14.5181 20.3842 13.9374 19.296C13.2765 18.0577 13.1217 16.5917 13.1217 14.5032Z" fill="white" stroke="#333333" stroke-linejoin="round"/>
</g>
<defs>
<clipPath id="clip0_430_3425">
<rect width="40" height="40" fill="white"/>
</clipPath>
</defs>
</svg>
