<svg width="40" height="40" viewBox="0 0 40 40" fill="none" xmlns="http://www.w3.org/2000/svg">
<g clip-path="url(#clip0_430_3429)">
<circle cx="20" cy="20" r="19.5" stroke="#333333"/>
<path d="M32.9144 15.6588L32.9142 15.657C32.8359 14.8097 32.7218 14.0122 32.5659 13.4255C32.4384 12.9493 32.1882 12.5149 31.8403 12.1657C31.4925 11.8166 31.0592 11.5648 30.5838 11.4356C30.1696 11.3242 29.4347 11.2301 28.5075 11.1552C27.592 11.0813 26.5252 11.0285 25.4691 10.991C23.634 10.9258 21.8444 10.907 20.9635 10.9016H20.4852H20.1676C18.6022 10.9071 17.0369 10.9351 15.4723 10.9854L15.1923 10.9969L15.1893 10.997V10.997L15.0474 11.0019L14.7651 11.0118L14.4881 11.0232C14.4878 11.0232 14.4875 11.0232 14.4871 11.0232C12.6396 11.1065 10.9565 11.2382 10.216 11.4357C9.74055 11.5646 9.30725 11.8161 8.95951 12.1652C8.6116 12.5144 8.36156 12.949 8.23448 13.4255L32.9144 15.6588ZM32.9144 15.6588L32.9306 15.8276L32.9664 16.2501L32.9667 16.2539L32.9793 16.4189C32.9794 16.4193 32.9794 16.4198 32.9794 16.4202C33.0853 17.91 33.0985 19.3075 33.1002 19.6149V19.736C33.0985 20.0543 33.0837 21.5477 32.9663 23.1001L32.9535 23.268L32.9531 23.2731L32.9387 23.4392C32.8568 24.3771 32.7375 25.279 32.5659 25.9256C32.4389 26.402 32.1888 26.8367 31.8409 27.186C31.493 27.5352 31.0595 27.7868 30.5839 27.9156C30.1554 28.0308 29.3848 28.1273 28.4159 28.2033C27.4594 28.2783 26.3473 28.3309 25.2588 28.3676C23.0823 28.441 21.0175 28.4504 20.5157 28.4513H20.2822C19.7756 28.4513 17.6729 28.4414 15.4695 28.3657L15.1948 28.356L15.1895 28.3558L15.0513 28.3494L15.0487 28.3493M32.9144 15.6588L15.0487 28.3493M15.0487 28.3493L14.7666 28.3378L14.7461 28.8374M15.0487 28.3493L14.7461 28.8374M14.7461 28.8374L14.7666 28.3378L14.486 28.3263C14.4857 28.3263 14.4854 28.3263 14.4851 28.3263C12.6361 28.2446 10.9541 28.1144 10.2154 27.9141L10.2151 27.914M14.7461 28.8374L10.2151 27.914M10.2151 27.914C9.73951 27.7853 9.30601 27.5339 8.95809 27.1849C8.61026 26.836 8.36016 26.4018 8.23283 25.9257C8.06147 25.2817 7.94223 24.3793 7.86025 23.442L7.84726 23.2715L7.84723 23.2711M10.2151 27.914L7.84723 23.2711M7.84723 23.2711L7.83418 23.1014C7.83416 23.1011 7.83413 23.1008 7.83411 23.1004C7.75355 21.9937 7.70889 20.8847 7.7002 19.7751V19.5764C7.70351 19.221 7.71675 18.0086 7.80469 16.6726C7.8047 16.6724 7.80471 16.6723 7.80472 16.6721L7.8162 16.5031L7.81623 16.5031M7.84723 23.2711L7.81623 16.5031M7.81623 16.5031L7.81652 16.498L7.8212 16.417M7.81623 16.5031L7.8212 16.417M7.8212 16.417L7.83389 16.252L7.86979 15.8276L7.88602 15.6588L7.88618 15.657C7.96455 14.8093 8.07866 14.0104 8.23444 13.4256L7.8212 16.417ZM18.0117 15.2659L17.2609 14.8304V15.6984V23.6511V24.5187L18.0115 24.0837L24.871 20.109L25.6173 19.6766L24.8712 19.2439L18.0117 15.2659Z" fill="white" stroke="#333333"/>
</g>
<defs>
<clipPath id="clip0_430_3429">
<rect width="40" height="40" fill="white"/>
</clipPath>
</defs>
</svg>
